Coordinates
version=1
nRows=27
nColumns=12
inDegrees=yes

Units are S.I. units (second, meters, Newtons, ...)
Angles are in degrees

endheader
time	SC_y	SC_z	SC_x	AC_y	AC_z	AC_x	GH_y	GH_z	GH_yy	EL_x	PS_y
       0.0               -57.7           15.8          43.37          48.17         -8.182        0.08516         -51.04         -2.213         -161.3          107.9          141.5
  0.002984              -57.69           15.8          43.36          48.17         -8.183        0.08658         -51.03         -2.209         -161.3          107.9          141.5
  0.005967              -57.69           15.8          43.36          48.17         -8.185        0.08809         -51.02         -2.204         -161.2          107.9          141.5
  0.008951              -57.68           15.8          43.36          48.17         -8.186        0.08969         -51.01         -2.199         -161.2          107.9          141.5
   0.01193              -57.68          15.79          43.35          48.17         -8.188         0.0914          -51.0         -2.194         -161.1          107.9          141.5
   0.01492              -57.67          15.79          43.35          48.17          -8.19        0.09322         -50.99         -2.189         -161.0          107.9          141.5
    0.0179              -57.66          15.79          43.34          48.17         -8.192        0.09517         -50.98         -2.183         -161.0          107.8          141.5
   0.02089              -57.66          15.79          43.34          48.17         -8.194        0.09725         -50.96         -2.177         -160.9          107.8          141.5
   0.02387              -57.65          15.79          43.34          48.17         -8.197        0.09947         -50.95         -2.171         -160.8          107.8          141.5
   0.02685              -57.64          15.79          43.33          48.17         -8.199         0.1019         -50.94         -2.164         -160.7          107.8          141.5
   0.02984              -57.63          15.79          43.32          48.17         -8.202         0.1044         -50.92         -2.156         -160.6          107.8          141.5
   0.03282              -57.62          15.79          43.32          48.17         -8.205         0.1072          -50.9         -2.148         -160.6          107.8          141.4
    0.0358              -57.61          15.79          43.31          48.17         -8.208         0.1102         -50.88         -2.139         -160.5          107.8          141.4
   0.03879               -57.6          15.79           43.3          48.16         -8.211         0.1134         -50.86          -2.13         -160.3          107.8          141.4
   0.04177              -57.59          15.79           43.3          48.16         -8.215         0.1168         -50.84         -2.119         -160.2          107.8          141.4
   0.04476              -57.58          15.79          43.29          48.16         -8.219         0.1206         -50.82         -2.108         -160.1          107.7          141.4
   0.04774              -57.56          15.78          43.28          48.16         -8.223         0.1247         -50.79         -2.096         -160.0          107.7          141.4
   0.05072              -57.55          15.78          43.27          48.16         -8.228         0.1292         -50.76         -2.083         -159.8          107.7          141.4
   0.05371              -57.53          15.78          43.26          48.16         -8.233         0.1341         -50.73         -2.069         -159.6          107.7          141.4
   0.05669              -57.51          15.78          43.25          48.16         -8.238         0.1394          -50.7         -2.053         -159.4          107.7          141.4
   0.05967              -57.49          15.78          43.24          48.16         -8.244         0.1453         -50.66         -2.036         -159.2          107.6          141.4
   0.06266              -57.47          15.78          43.22          48.16         -8.251         0.1517         -50.62         -2.017         -159.0          107.6          141.3
   0.06564              -57.45          15.77          43.21          48.16         -8.258         0.1588         -50.57         -1.996         -158.8          107.6          141.3
   0.06862              -57.42          15.77          43.19          48.16         -8.267         0.1667         -50.52         -1.973         -158.5          107.6          141.3
   0.07161              -57.39          15.77          43.17          48.16         -8.276         0.1755         -50.47         -1.947         -158.2          107.5          141.3
   0.07459              -57.36          15.77          43.15          48.16         -8.286         0.1853         -50.41         -1.918         -157.9          107.5          141.3
   0.07758              -57.32          15.76          43.12          48.16         -8.297         0.1963         -50.34         -1.886         -157.5          107.4          141.2
